<svg xmlns="http://www.w3.org/2000/svg" xmlns:xlink="http://www.w3.org/1999/xlink" viewBox="0 0 107.167 108.167" fill="#fff" fill-rule="evenodd" stroke="#000" stroke-linecap="round" stroke-linejoin="round"><use xlink:href="#A" x="2.083" y="2.083"/><symbol id="A" overflow="visible"><g stroke="none"><g fill="#d0cfce" fill-rule="nonzero"><path d="M84.485 15.673v49.49H7.635L0 15.673z"/><use xlink:href="#C"/><use xlink:href="#C" x="-75.225"/></g><path d="M71.488 26.177v1.667m0 25.646v1.667m-11.2-28.979v1.667m0 25.646v1.667m-11.2-28.979v1.667m0 25.646v1.667M37.89 26.177v1.667m0 25.646v1.667M26.688 26.177v1.667m0 25.646v1.667M15.49 26.177v1.667m0 25.646v1.667m55.998-15.737v1.667m-11.2-1.667v1.667m-11.2-1.667v1.667M37.89 39.419v1.667m-11.202-1.667v1.667M15.49 39.419v1.667" fill="#9b9b9a" fill-rule="nonzero"/></g><g fill="none" stroke-width="4.167"><path d="M84.485 15.673v49.49H7.635L0 15.673z"/><path d="M84.486 15.673L91.992 0h10.719M5.594 84.96h78.9"/><use xlink:href="#C"/><use xlink:href="#C" x="-75.225"/><path d="M84.486 65.162s10.083.742 10.083 9.975c0 10.671-9.548 9.817-9.548 9.817M71.488 26.177v1.667m0 25.646v1.667m-11.2-28.979v1.667m0 25.646v1.667m-11.2-28.979v1.667m0 25.646v1.667M37.89 26.177v1.667m0 25.646v1.667M26.688 26.177v1.667m0 25.646v1.667M15.49 26.177v1.667m0 25.646v1.667m55.998-15.737v1.667m-11.2-1.667v1.667m-11.2-1.667v1.667M37.89 39.419v1.667m-11.202-1.667v1.667M15.49 39.419v1.667" stroke-miterlimit="10"/></g></symbol><defs ><path id="C" d="M75.871 98.717a4.94 4.94 0 0 1 4.948-4.948c2.741 0 4.948 2.207 4.948 4.948s-2.207 4.948-4.948 4.948-4.948-2.207-4.948-4.948z"/></defs></svg>